<!-- icon666.com - MILLIONS vector ICONS FREE --><svg id="Layer_11" viewBox="0 0 60 60" xmlns="http://www.w3.org/2000/svg" data-name="Layer 11"><rect fill="#00bcd4" height="16" rx="2" width="24" x="18" y="1"></rect><path d="m40 1h-3a2.006 2.006 0 0 1 2 2v12a2.006 2.006 0 0 1 -2 2h3a2.006 2.006 0 0 0 2-2v-12a2.006 2.006 0 0 0 -2-2z" fill="#00838f"></path><path d="m26 17h8v4h-8z" fill="#3f51b5"></path><path d="m31 17h3v4h-3z" fill="#283593"></path><path d="m39 24a1 1 0 0 1 -1 1h-16a1 1 0 0 1 -1-1 3 3 0 0 1 3-3h12a3 3 0 0 1 3 3z" fill="#607d8b"></path><path d="m36 21h-3a3 3 0 0 1 3 3 1 1 0 0 1 -1 1h3a1 1 0 0 0 1-1 3 3 0 0 0 -3-3z" fill="#37474f"></path><rect fill="#00bcd4" height="16" rx="2" width="24" x="1" y="35"></rect><path d="m9 51h8v4h-8z" fill="#3f51b5"></path><path d="m22 58a1 1 0 0 1 -1 1h-16a1 1 0 0 1 -1-1 3 3 0 0 1 3-3h12a3 3 0 0 1 3 3z" fill="#607d8b"></path><rect fill="#00bcd4" height="16" rx="2" width="24" x="35" y="35"></rect><path d="m57 35h-3a2.006 2.006 0 0 1 2 2v12a2.006 2.006 0 0 1 -2 2h3a2.006 2.006 0 0 0 2-2v-12a2.006 2.006 0 0 0 -2-2z" fill="#00838f"></path><path d="m43 51h8v4h-8z" fill="#3f51b5"></path><path d="m48 51h3v4h-3z" fill="#283593"></path><path d="m56 58a1 1 0 0 1 -1 1h-16a1 1 0 0 1 -1-1 3 3 0 0 1 3-3h12a3 3 0 0 1 3 3z" fill="#607d8b"></path><path d="m53 55h-3a3 3 0 0 1 3 3 1 1 0 0 1 -1 1h3a1 1 0 0 0 1-1 3 3 0 0 0 -3-3z" fill="#37474f"></path><g fill="#fff"><path d="m22 8a1 1 0 0 1 -.707-1.707l2-2a1 1 0 1 1 1.414 1.414l-2 2a1 1 0 0 1 -.707.293z"></path><path d="m22 13a1 1 0 0 1 -.707-1.707l7-7a1 1 0 1 1 1.414 1.414l-7 7a1 1 0 0 1 -.707.293z"></path><path d="m5 42a1 1 0 0 1 -.707-1.707l2-2a1 1 0 0 1 1.414 1.414l-2 2a1 1 0 0 1 -.707.293z"></path><path d="m5 47a1 1 0 0 1 -.707-1.707l7-7a1 1 0 0 1 1.414 1.414l-7 7a1 1 0 0 1 -.707.293z"></path><path d="m39 42a1 1 0 0 1 -.707-1.707l2-2a1 1 0 0 1 1.414 1.414l-2 2a1 1 0 0 1 -.707.293z"></path><path d="m39 47a1 1 0 0 1 -.707-1.707l7-7a1 1 0 0 1 1.414 1.414l-7 7a1 1 0 0 1 -.707.293z"></path></g><path d="m57 34h-8v-4a1 1 0 0 0 -1-1h-17v-3h7a2 2 0 0 0 2-2 4 4 0 0 0 -4-4h-1v-2h5a3 3 0 0 0 3-3v-12a3 3 0 0 0 -3-3h-20a3 3 0 0 0 -3 3v12a3 3 0 0 0 3 3h5v2h-1a4 4 0 0 0 -4 4 2 2 0 0 0 2 2h7v3h-17a1 1 0 0 0 -1 1v4h-8a3 3 0 0 0 -3 3v12a3 3 0 0 0 3 3h5v2h-1a4 4 0 0 0 -4 4 2 2 0 0 0 2 2h16a2 2 0 0 0 2-2 4 4 0 0 0 -4-4h-1v-2h5a3 3 0 0 0 3-3v-12a3 3 0 0 0 -3-3h-10v-3h34v3h-10a3 3 0 0 0 -3 3v12a3 3 0 0 0 3 3h5v2h-1a4 4 0 0 0 -4 4 2 2 0 0 0 2 2h16a2 2 0 0 0 2-2 4 4 0 0 0 -4-4h-1v-2h5a3 3 0 0 0 3-3v-12a3 3 0 0 0 -3-3zm-38-19v-12a1 1 0 0 1 1-1h20a1 1 0 0 1 1 1v12a1 1 0 0 1 -1 1h-20a1 1 0 0 1 -1-1zm8 3h6v2h-6zm-3 4h12a2.005 2.005 0 0 1 2 2h-16a2 2 0 0 1 2-2zm-3 36h-16a2 2 0 0 1 2-2h12a2.005 2.005 0 0 1 2 2zm-5-4h-6v-2h6zm8-17v12a1 1 0 0 1 -1 1h-20a1 1 0 0 1 -1-1v-12a1 1 0 0 1 1-1h20a1 1 0 0 1 1 1zm31 21h-16a2 2 0 0 1 2-2h12a2.005 2.005 0 0 1 2 2zm-5-4h-6v-2h6zm8-5a1 1 0 0 1 -1 1h-20a1 1 0 0 1 -1-1v-12a1 1 0 0 1 1-1h20a1 1 0 0 1 1 1z"></path><path d="m22 8a1 1 0 0 0 .707-.293l2-2a1 1 0 1 0 -1.414-1.414l-2 2a1 1 0 0 0 .707 1.707z" fill="#fff"></path><path d="m29.707 4.293a1 1 0 0 0 -1.414 0l-7 7a1 1 0 1 0 1.414 1.414l7-7a1 1 0 0 0 0-1.414z" fill="#fff"></path><path d="m5 42a1 1 0 0 0 .707-.293l2-2a1 1 0 0 0 -1.414-1.414l-2 2a1 1 0 0 0 .707 1.707z" fill="#fff"></path><path d="m5 47a1 1 0 0 0 .707-.293l7-7a1 1 0 0 0 -1.414-1.414l-7 7a1 1 0 0 0 .707 1.707z" fill="#fff"></path><path d="m39 42a1 1 0 0 0 .707-.293l2-2a1 1 0 0 0 -1.414-1.414l-2 2a1 1 0 0 0 .707 1.707z" fill="#fff"></path><path d="m45.293 38.293-7 7a1 1 0 1 0 1.414 1.414l7-7a1 1 0 0 0 -1.414-1.414z" fill="#fff"></path></svg>