<!-- icon666.com - MILLIONS vector ICONS FREE --><svg id="Layer_1" enable-background="new 0 0 68 68" viewBox="0 0 68 68" xmlns="http://www.w3.org/2000/svg"><g id="_x36_"><g><g><g><g><path d="m64.4228973 12.3459501v34.658699c0 3.2422981-2.6283989 5.8707008-5.870697 5.8707008h-50.6815004c-3.2423001.0000011-5.8706999-2.6284017-5.8706999-5.8706998v-34.658699c0-3.2423 2.6283998-5.8707004 5.8706999-5.8707004h50.6814995c3.242299-.0000009 5.8706979 2.6283994 5.8706979 5.8706994z" fill="#dedffb"></path></g><g><path d="m52.0778999 52.8749504 4.4863014 4.7231979c1.4068985 1.4812012.3569984 3.9266014-1.6859016 3.9266014h-44.1125994c-2.0429001 0-3.0929003-2.4454002-1.6859999-3.9266014l4.4862996-4.7231979z" fill="#31445b"></path></g><g><path d="m66 12.3459501v34.658699c0 3.2422981-2.6283989 5.8707008-5.8708 5.8707008h-50.6814003c-3.2423997 0-5.8708-2.6284027-5.8708-5.8707008v-34.658699c0-3.2423 2.6284001-5.8707004 5.8708-5.8707004h50.6814003c3.2424011.0000001 5.8708 2.6284004 5.8708 5.8707004z" fill="#f3f1fc"></path></g><g><path d="m54.2398987 52.8749504 4.4863014 4.7231979c1.4068985 1.4812012.3568993 3.9266014-1.6859016 3.9266014h-44.1126986c-2.0429001 0-3.0928001-2.4454002-1.6858997-3.9266014l4.4862995-4.7231979z" fill="#4c5c75"></path></g><g><path d="m55.8279991 54.5525513h-34.4435997c-2.2726002 0-4.4454002.9337006-6.0094995 2.5823975l-2.0300999 2.1399993c-.6303997.6596031-.7660999 1.5031013-.5528002 2.2401009-1.9587994-.1065979-2.9285002-2.472599-1.5515995-3.9176979l4.4898996-4.7224007h38.5072975z" fill="#31445b"></path></g><g><path d="m61.7375984 16.7432499c0 1.7565002-1.422699 3.1791992-3.1791992 3.1791992-1.757 0-3.1796989-1.422699-3.1796989-3.1791992 0-1.7495003 1.422699-3.1722002 3.1796989-3.1722002 1.7565002 0 3.1791992 1.4226999 3.1791992 3.1722002z" fill="#ffd06c"></path></g><g><path d="m61.7375984 25.8495502c0 1.7565994-1.422699 3.1793003-3.1791992 3.1793003-1.757 0-3.1796989-1.4227009-3.1796989-3.1793003 0-1.7495003 1.422699-3.1722012 3.1796989-3.1722012 1.7565002.0000001 3.1791992 1.422701 3.1791992 3.1722012z" fill="#5ec363"></path></g><g><path d="m61.2410011 18.4446507c-.5580025.8860989-1.550602 1.4764996-2.6826019 1.4764996-1.7556992 0-3.1833-1.4192009-3.1833-3.1746998 0-1.1322002.5908012-2.1164007 1.476902-2.6826-.3120995.4923-.4923019 1.0747995-.4923019 1.6981993 0 1.7554998 1.4192009 3.1829004 3.1749001 3.1829004.6231994-.0000001 1.2140998-.1804009 1.7064017-.5002995z" fill="#f9a83d"></path></g><g><path d="m61.2410011 27.5587502c-.5580025.8859997-1.550602 1.468399-2.6826019 1.468399-1.7556992 0-3.1833-1.419199-3.1833-3.1746998 0-1.1320992.5908012-2.1164989 1.476902-2.6824989-.3120995.4920998-.4923019 1.0744991-.4923019 1.6982002 0 1.7635994 1.4192009 3.1827984 3.1749001 3.1827984.6231994 0 1.2140998-.1803989 1.7064017-.4921989z" fill="#50b069"></path></g><g><g><path d="m62.5779991 36.5778503c0 .6601982-.535099 1.1953011-1.1952972 1.1953011h-5.6490021c-.6601982 0-1.1954002-.5351028-1.1954002-1.1953011 0-.660202.535202-1.1954002 1.1954002-1.1954002h5.6490021c.6601982 0 1.1952972.5351982 1.1952972 1.1954002z" fill="#4c5c75"></path></g><g><path d="m62.5779991 41.5846481c0 .660202-.535099 1.1954002-1.1952972 1.1954002h-5.6490021c-.6601982 0-1.1954002-.5351982-1.1954002-1.1954002 0-.6601982.535202-1.1953964 1.1954002-1.1953964h5.6490021c.6601982 0 1.1952972.5351982 1.1952972 1.1953964z" fill="#4c5c75"></path></g></g><g><g><path d="m62.4301987 37.1486511c-.2050972.3774986-.5987968.6236-1.0497971.6236h-5.644001c-.6645012 0-1.1977005-.5333023-1.1977005-1.1976013 0-.4266014.2210999-.8041992.5656013-1.0093002-.0981026.1725006-.1473999.3610992-.1473999.5741997 0 .6564026.5331993 1.1897011 1.1976967 1.1897011h5.6439018c.2299996-.0000001.4515-.0657006.6316987-.1805993z" fill="#31445b"></path></g><g><path d="m62.4221992 42.1610489c-.1970978.3691025-.5907974.6152992-1.0417976.6152992h-5.644001c-.6645012 0-1.1977005-.5331993-1.1977005-1.1894989 0-.4347992.2294998-.8120995.5740013-1.0172005-.0985031.1722031-.1557999.3691025-.1557999.5741997 0 .6645012.5331993 1.1977005 1.1976967 1.1977005h5.6439018c.2299996 0 .4431-.0657005.6236992-.1805z" fill="#31445b"></path></g></g><g><path d="m53.0575981 12.6701498v34.0102997c0 1.399498-1.1345978 2.5340996-2.5340996 2.5340996h-41.3598985c-1.3994999 0-2.5341001-1.1346016-2.5341001-2.5340996v-34.0102997c0-1.3996 1.1346002-2.5340996 2.5341001-2.5340996h41.3598976c1.3995027 0 2.5341005 1.1344996 2.5341005 2.5340996z" fill="#fff"></path></g><g><path d="m49.9601364 14.4771099v30.4003925c0 .5498047-.4501953 1-1 1h-38.2299795c-.3398438 0-.6499023-.1801758-.8300781-.4404297-.1098633-.159668-.1699219-.3496094-.1699219-.5595703v-30.4003925c0-.5498047.4501953-1 1-1h38.2299805c.2299805 0 .4399414.0800781.6098633.2099609.2402334.1801758.3901357.4702149.3901357.7900391z" fill="#57b3fe"></path></g></g></g><g opacity=".1"><g><path d="m19.9703903 13.4771099-10.2402334 14v-3.2597656l7.8598623-10.7402344z" fill="#fff"></path></g><g><path d="m30.7203903 13.4771099-20.9902334 28.6904316v-11.1904316l12.7998037-17.5z" fill="#fff"></path></g><g><path d="m37.1700974 13.4771099-23.70996 32.4003925h-2.7299805c-.3398438 0-.6499023-.1801758-.8300781-.4404297l23.3798828-31.9599628z" fill="#fff"></path></g></g><g opacity=".1"><g><path d="m49.5699997 13.6870708-23.5498047 32.1904316h-2.5400391l23.7099609-32.4003906h1.7700195c.2299806-.0000019.4399415.0800762.6098634.209959z" fill="#fff"></path></g><g><path d="m49.9601364 16.8872662v11.9199218l-12.4897461 17.0703144h-8.7304687z" fill="#fff"></path></g><g><path d="m49.9601364 32.5371704v5.6499024l-5.6298828 7.6904296h-4.1303711z" fill="#fff"></path></g></g><g><g><g><path d="m37.6127357 29.5884151c0 4.2854939-3.4836769 7.7690868-7.7689171 7.7690868-.6773624 0-1.3479748-.082943-1.9976635-.2557411l-.3385124.7465477c-.2075634.4561348-.8640003.4561348-1.064476-.006916l-1.3064632-2.9929543c-.1383743-.3179245.0276756-.6842804.3523502-.7878914l3.103651-1.0161285c.4839764-.1520462.9193516.3386803.7121258.7948952l-.3182621.70504c.276413.0552635.5669994.0760193.8572502.0760193 2.7786407 0 5.0388794-2.2602386 5.0388794-5.0319576 0-.3594379-.0415154-.718792-.1174507-1.07131-.1589622-.7396317.3108368-1.4654255 1.0506363-1.6243877.7323761-.1658821 1.4650879.3110065 1.6240501 1.0506382.1174508.5391558.172802 1.0921496.172802 1.6450594z" fill="#fff"></path></g><g><path d="m24.9085541 30.5907059c.1451244.7395477-.3385124 1.4583397-1.0783138 1.610466-.0897751.0137558-.1795502.0206718-.2696629.0206718-.635849 0-1.2096004-.4492111-1.3337994-1.0988998-.1036129-.5046463-.1522141-1.0230465-.1522141-1.5345287 0-4.2854939 3.4836769-7.7760048 7.7692547-7.7760048.788063 0 1.5552006.1175346 2.2879143.3386822l.2902489-.6428528c.2072258-.4630508.8640022-.4630508 1.064476 0l1.3061256 2.9929504c.1383743.3179264-.0273361.6842823-.3523483.7879791l-3.103653 1.0160446c-.4836388.1521282-.9260998-.3317623-.7185383-.7948971l.3729382-.8294067c-.3729382-.0898609-.7532997-.1312885-1.1471634-.1312885-2.7786388 0-5.0388775 2.2601547-5.0388775 5.0387936.0000001.3317623.0344258.6705284.103613 1.0022907z" fill="#fff"></path></g></g></g></g><g><path d="m49.9601364 14.4771099v1.2602539h-36.9702139c-.5498047 0-1 .449707-1 1v29.1401386h-1.2597656c-.3398438 0-.6499023-.1801758-.8300781-.4404297-.1098633-.159668-.1699219-.3496094-.1699219-.5595703v-30.4003925c0-.5498047.4501953-1 1-1h38.2299805c.2299805 0 .4399414.0800781.6098633.2099609.2402334.1801758.3901357.4702149.3901357.7900391z" fill="#5094ff"></path></g></g></svg>