<?xml version="1.0" encoding="UTF-8"?>
<svg version="1.1" viewBox="0 0 1024 1024" width="1280" height="1280" xmlns="http://www.w3.org/2000/svg">
<path transform="translate(871,119)" d="m0 0 5 1v9l-4 22-10 42-7 16-5 11-7 16-7 10-7 14-7 11-5 2-1 6-4 6-7 6-5 7-3 5-5 4-5 5-5 7-5 2-2 4-5 4-3 5-4 3h-2l-2 4-6 5-5 6-8 7-7 8-5 5-8 7-4 5-8 7-8 9-8 7-8 9-8 7-9 10h-2l-2 4-11 13-3 7v99l1 12 3 6 9 11 17 16 6 5 29 1 7 1 4 5 2 4v6l-6 8-4 6-10 8-7 9-10 9-8 9-4 4h-2l-2 4-11 12-7 9-4 9-2 12-1 32-1 15-4 11-7 9-14 7-6 1-238 1h-130l-9-2-10-5-8-9-4-10-2-11-1-93v-402l2-9 7-13 7-6 14-7 11-1h248l18 1 7 3 8 5 5 3 6 7v2l4 2 8 6 7 8 8 7 6 7 8 7 15 14 6 5 2 5 13-12 10-10 7-8 28-28 7-8 10-10 4-5 5-5 5-4 7-8 11-11 7-8 9-7 9-8 20-13 9-7 9-3 5-5 15-8 10-3 10-6 9-4 9-3 17-5zm-593 139-19 1-12 12-3 6-1 6-1 177v108l1 180 2 9 6 8 4 3 10 2 91 1h232l17-1 11-4 6-8 2-15v-27l-2-6-5-6-8-6-4-6-9-7-5-5-7-8-6-4-7-8-9-8-7-8-11-11-7-8-7-6-8-11-10-8-2-5h-3l-4 1-8 7-5 5-18 20-9 9v2l-4 2-5 6-35 35-7 8-9 9-6 9-3 8-4 21-5 3h-88l-11-1-5-4-1-5-1-30v-61l6-2 5-2 13-2 2-4 4-2 9-6 5-8 10-8 5-6v-2l4-2 9-8 6-8 8-7 8-9 8-7 9-10 8-7 9-10 6-5 8-11-2-4-6-8-12-11-7-8-11-10-7-8-7-6-6-8-9-7-6-9-8-4-10-2h-24l-3-7-1-7 1-94 2-5h110l5 26 6 8 3 3h2l2 4 9 10 7 6 7 8 10 9 19 19 5 6 6 5 4 6 2 1 6-4 15-15 7-8 18-18 8-7 9-10 9-9 7-8 10-10-1-2-28 28-4 5-4 1h-10l-12-2-5-5-11-13-2-6-1-10-1-70-2-4-2-1zm332 55m-7 8m-1 1m-1 1m-1 1-8 8 1 2 8-8zm-9 10m36 139-3 3v2l-5 2-10 9-3 5-8 6-5 6-1 7 4 6 8 7 15 16 4 1 1-44v-18l4-6z" fill="#2E87CF"/>
<path transform="translate(867,120)" d="m0 0 2 1-11 12-8 8-7 8-11 11-7 8-11 11-7 8-57 57-7 8-43 43-7 8-27 27-1 2h-2l-2 4-145 145v-3-2-2l-9-2-8 3h-5v-2l-16 6-9 5-7 5-6 2-4 4h-2v2h-2v2l-5 4h-2v2l-7 6-2 6-8 6-7 2 2-5-2-1 2-4 1-4-8-10-12-11-7-8-10-9-8-9-7-6-6-8-8-6-6-9-8-4-10-2h-24l-3-5-2-10 1-94 2-5 1-1h104l6 1 3 9 3 17 6 8 5 5 10 11 8 7 7 8 8 7 21 21 4 5 7 6 4 6 6-3 15-15 7-8 19-19 8-7 7-8 10-10 7-8 10-10-4 1-2 4h-2l-2 4-17 17-5 6-4 1h-10l-12-2-5-5-12-14-2-6-1-10-1-70-1-4v-7l-5-1-52-1h-191l-10 2-7 4-6 8-2 6-1 238-6 18-7 14-3 13-1 1-2 22-1 92h-1v-402l2-9 7-13 7-6 14-7 11-1h248l18 1 7 3 8 5 5 3 6 7v2l4 2 8 6 7 8 8 7 6 7 8 7 15 14 6 5 2 5 13-12 10-10 7-8 28-28 7-8 10-10 4-5 5-5 5-4 7-8 11-11 7-8 9-7 9-8 20-13 9-7 9-3 5-5 15-8 10-3 10-6 9-4 9-3 17-5zm-257 193m-7 8m-1 1m-1 1m-1 1-8 8 1 2 8-8z" fill="#41BAF1"/>
<path transform="translate(871,119)" d="m0 0 5 1v9l-4 22-10 42-6 14-2-2-2 4h-2l-1 7-10 20-12 20-12 17-8 11h-2l-2 4-9 11-14 15-174 174-1 2h-2l-1 3-8 7-6 7-1 7-5 1-3-6 1-5 4-5 4-1 7-6h2l1-3 3-1 3-3h2v-4h2l2-4 2-3h2l-1-3 5-4 4-1v-2l5-5 1-5-4 2v2h-2v2h-2l-2 4-4 4-1-2h-2l1 3h-4-3v2h-3v2l-6 3-1 2-20 10h-8l-1 6-3 3-7 2-2-1-1 3-8 1-2-1-1 6-4 8-5 1v2l-12 5-9 1h-3l-2 3-9 2-9 6-10 5-8 1-6 2-1-4 4-6 7-6 1-2h2l2-4 24-24h2l2-4h2l2-4 4-5h2l2-4 6-5 6-7 90-90 5-6 7-6 1-2h2v-2h2v-2h2v-2h2l2-4 4-4h2l5-10 7-8h2l2-4 31-31 7-8 43-43 7-8 57-57 7-8 11-11 7-8 11-11 7-8 10-10 4-5z" fill="#349BDA"/>
<path transform="translate(262,249)" d="m0 0h191l52 1 6 2v7h-233l-21 1-2 4-7 7-3 6-1 6-1 177v108l1 180 2 9 6 8 7 3 6 1 91 1h232l17-1 11-4 5-7 2-15v-27l-2-6-4-5-9-7-4-6-11-8-7-9-9-7-7-8-9-8-7-8-11-11-7-8-7-6-7-10-11-9-2-5-6 2-7 6-4 5-5 5-16 17-12 12-5 6-34 34-7 8-9 9-6 9-3 8-4 21-6 4h-88l-11-1v-3h99l3-2-1-26 7-8 72-72 14-15 22-22 6-1 8 7v2l4 2 5 6 5 5 9 8 7 8 55 55 8 3-4-9 1-2 3 3v2l4 2v-3l5 2 4 1 3-1 1-3 7-1 7-6 7-3 7-5 3-5 6-3 7-7 6-3 4 1-3 1-2 5-4 4h-2l-2 4h1l2-2 6-2 9-7 10-9 2 1-6 7-3 5-5 6-4 4h-2l-1 4h-2l-2 4-3 4-2 4h2l8-7 13-13v3l-8 9-4 4h-2l-2 4-11 12-7 9-4 9-2 12-1 32-1 15-4 11-7 9-14 7-6 1-238 1h-130l-9-2-10-5-8-9-4-10-2-11v-185l2-22 2-4 3-13 5-9 3-7 4-13 1-238 3-8 7-8 9-4z" fill="#2376CC"/>
<path transform="translate(507,471)" d="m0 0 9 3 2 1-2 6-6 7-56 56-6 7-68 68-4 5-6 5-2 3h-2l-2 4-28 28h-2l-2 4-6 5-6 7-6 5-6 7-8 7-9 9-5 4-4-2-1-3h-2l-1-7v-59l3-3 9-4 13-2 5-5 9-6 6-9 10-8 5-7 11-9 7-9 10-9 7-8 8-7 9-10 8-7 9-10 5-4 4-5 3-1 1 3-3 4 10-5 3-3h2l1-6 6-6h2v-2l5-4h2v-2h2v-2l5-2 1-3 9-4 10-7 10-3 5-3h4v2z" fill="#349CDB"/>
<path transform="translate(262,249)" d="m0 0h191l52 1 6 2v7h-233l-21 1-2 4-7 7-3 6-1 6-1 177v108l1 180 2 9 6 8 7 3 6 1 91 1h232l17-1 11-4 5-7 2-14h1l1 5h3l-1 7-4 8-7 7-8 3-6 1h-16l-15-2h-253l-22 1-10 1h-26l-10-2-9-3v2h-3l1 8 3 1 1 4 7 2 2 4v1h-10l-9-3-6-4-6-7-2-3-3-14v-185l2-22 2-4 3-13 5-9 3-7 4-13 1-238 3-8 7-8 9-4z" fill="#318BD1"/>
<path transform="translate(256,230)" d="m0 0h248l18 1 7 3v2l-6 1 2 4v6l-3 1-3 11-4 3h-3l-2-10-5-1-52-1h-191l-10 2-7 4-6 8-2 6-1 238-6 18-7 14-3 13-1 1-2 22-1 92h-1v-402l2-9 7-13 7-6 14-7z" fill="#38CCF6"/>
<path transform="translate(529,235)" d="m0 0 12 6 7 8v2l4 2 8 6 7 8 8 7 6 7 8 7 15 14 6 5 1 7-6 8-8 4-2 4-7 8h-2l-2 4h-2l-2 4-17 17-5 6-4 1h-10l-12-2-5-5-12-14-2-6-1-10-1-70-1-4 2-1v4l6-3 3-9 3-3v-6l-1-4z" fill="#41BAF2"/>
<path transform="translate(235,348)" d="m0 0h1v160l-6 18-7 14-3 13-1 1-2 22-1 92h-1v-215l1-96 3 2 3 8 1 5h5l3-6z" fill="#41BAF2"/>
<path transform="translate(236,277)" d="m0 0h1v283l-1 120-1 10-2 4-4 5-4-1-6-17-2-1v22h-1v-126l2-22 2-4 3-13 5-9 3-7 4-13z" fill="#349CDB"/>
<path transform="translate(262,249)" d="m0 0h191l52 1 6 2v7h-233l-21 1-2 4-7 7-3 6-1 6-1 177h-1l-1-117-1-11-1 1-1 273h-1l-1-336 3-8 7-8 9-4z" fill="#2A84D3"/>
<path transform="translate(593,317)" d="m0 0h8l-2 4-14 14-7 8-20 20-1 2h-2v2l-4 2h-13l-8-2-9-11-7-9-1-4v-24l1-1z" fill="#349CDB"/>
<path transform="translate(646,764)" d="m0 0h1v9l-5 10-6 7-13 6-6 1-238 1h-130l-9-2-10-5-8-9-1-5 4 5 6 5 6 3 10 2h173l201-1 10-3 5-4 7-11z" fill="#166CAC"/>
<path transform="translate(504,591)" d="m0 0 6 1 6 6v2l4 2 5 6 5 5 9 8 7 8 76 76 5 7v6l-2 5h-1l-2-12-5-6-9-7-4-6-11-8-7-9-9-7-7-8-9-8-7-8-11-11-7-8-7-6-7-10-11-9-2-5-6 2-7 6-4 5-5 5-16 17-12 12-5 6-34 34-7 8-9 9-6 9-3 8-4 21-6 4h-88l-11-1v-3h99l3-2-1-26 7-8 72-72 14-15 22-22z" fill="#1368A5"/>
<path transform="translate(262,249)" d="m0 0h191l52 1 6 2v7l-6-1-3-2-17-1-84 1h-75l-47-2h-12l-16 4-5 4-4 9-2 2h-3v-7l6-9 6-5 6-2z" fill="#0F639E"/>
<path transform="translate(854,204)" d="m0 0h1v5l-5 11-7 16-7 10-7 14-7 11-5 2-1 6-4 6-7 6-5 7-3 5-5 4-5 5-5 7-5 2-2 4-5 4-3 5-4 3h-2l-2 4-6 5-5 6-8 7-7 8-5 5-8 7-4 5-8 7-8 9-8 7-8 9-8 7-9 10h-2v2l-5 3-8 8-5 6-16 16-4 6h-2l-1 4-9 6-6 7-5 5-9 8-4 6-4-1 2-5 14-14h2l2-4 181-181 7-8 10-13h2l2-4 13-18 13-21 13-25 2-7h2z" fill="#166DAC"/>
<path transform="translate(240,330)" d="m0 0h1l1 427-3-3-2-9v-139l1-273z" fill="#0F639E"/>
<path transform="translate(662,435)" d="m0 0 2 1-7 8-7 9-1 4-1 17h-1l-2 22-4 3-4 2-1 2-6 2-1 43h-4l-1-3-3-1 2-1v-62l4-6 1-4 9-10 8-9 5-4 7-8z" fill="#349CDB"/>
<path transform="translate(623,744)" d="m0 0h1l1 5h3l-1 7-4 8-7 7-8 3-6 1h-16l-15-2h-253l-22 1-10 1h-26l-10-2-8-6-4-5-1-6h3l5 6 3 2h3l4 3 10 2 91 1h232l17-1 11-4 5-7z" fill="#38A4E1"/>
<path transform="translate(314,317)" d="m0 0 7 1 3-1h11l5 1h8l3 2-4 1 1 1 21 3v2h-7l1 4-7 2h-8l-9 3-10 1-5 2-6 3h-3l-1-5-3-1-1 4-6-2-2-6v-11l2 2z" fill="#39CFF8"/>
<path transform="translate(318,772)" d="m0 0h253l15 2v1h-244l-50 1-34 1-3-3h31l10-1z" fill="#2F88CF"/>
<path transform="translate(302,417)" d="m0 0 1 3h36l9 10 32 32 7 8 12 12v2l4 2 7 8 11 11 1 4-5-2-9-10-8-7-7-8-10-9-8-9-7-6-6-8-8-6-6-9-8-4-10-2h-24l-3-5z" fill="#176DAB"/>
<path transform="translate(654,342)" d="m0 0 2 1-5 7-7 6-1 2h-2v2h-2v2h-2v2h-2l-2 4h-2l-2 4h-2l-2 4h-2l-2 4-85 85-6 7-6 5-6 7h-2l-2 4-4 5-8 7-23 23-1-4 37-37 7-8z" fill="#2F8AD0"/>
<path transform="translate(623,744)" d="m0 0h1l1 5h3l-1 7-4 8-7 7-8 3-6 1h-16l-15-2-76-1v-1l93-1 17-1 11-4 5-7z" fill="#359EDC"/>
<path transform="translate(389,733)" d="m0 0h2l-1 5-5 3h-88l-11-1v-3h99z" fill="#1266A4"/>
<path transform="translate(386,710)" d="m0 0h1l1 7 1 18-4 3h-35l-13-1v-1l12-2 5-1 4 1 3-1 5 2v-3l12 1-3-3 1-3h3l4-6z" fill="#2376CC"/>
<path transform="translate(610,309)" d="m0 0 1 4-2 4-5 5-5 4h-2l-2 4-7 8h-2l-2 4h-2l-2 4-17 17-5 6-4 1h-10v-1l11-2v-2h2l2-4 24-24 7-8 10-10h2l2-4z" fill="#47CEF7"/>
<path transform="translate(802,149)" d="m0 0 3 1-22 13-18 11-13 9-15 12-8 7-9 9-6 7-5 5-9 10-2-1 8-11h2l2-4h2l1-3 15-15 7-6 5-6 5-2 4-3h2l1-3 4-4 10-5 3-3 7-4h3l1-3 19-9z" fill="#39CFF8"/>
<path transform="translate(256,260)" d="m0 0v3l-8 8-3 6-1 6-1 177h-1l-1-117v-61l1-8h2l1-4 5-6z" fill="#A3D8F1"/>
<path transform="translate(654,342)" d="m0 0 2 1-5 7-7 6-1 2h-2v2h-2v2h-2v2h-2l-2 4h-2l-2 4h-2l-2 4-5 3-65 65-2-1z" fill="#3192D5"/>
<path transform="translate(485,254)" d="m0 0 17 1 3 3-94-1 4-2z" fill="#287FCD"/>
<path transform="translate(815,139)" d="m0 0m-1 1m-2 1 2 1-1 1 2 2-8 4-7 2-17 9-3-1 4-5 18-10z" fill="#40BDF2"/>
<path transform="translate(709,608)" d="m0 0h12l4 5 2 4v6l-4 3v-6l-4-3-5-3-8-4z" fill="#2276CA"/>
<path transform="translate(690,660)" d="m0 0v3l-8 9-4 4h-2l-2 4-11 12-7 9-2 4-5 4 1-7 8-8 7-8 15-16z" fill="#176FAC"/>
<path transform="translate(635,467)" d="m0 0h1v5h-2l-1 6-3 9h-4l1 4-2 8h-1l-1-18 6-8z" fill="#2E87CF"/>
<path transform="translate(865,167)" d="m0 0 1 2-2 16-3 10-5 12-2-3 1-6 5-15 1-7h2l1-8z" fill="#3485BF"/>
<path transform="translate(654,342)" d="m0 0 2 1-5 7-7 6-1 2h-2v2h-2v2h-2v2h-2l-2 4h-2l-2 4h-2l-2 4-2-1 3-5z" fill="#308ED2"/>
<path transform="translate(413,315)" d="m0 0h2l3 9v14l-5-2z" fill="#1A72B2"/>
<path transform="translate(304,425)" d="m0 0 17 1h14l8 4-3 1-10-2h-24z" fill="#38A6E3"/>
<path transform="translate(306,424)" d="m0 0h28l7 3 1 2-7-2h-20l-10-1z" fill="#2376CC"/>
<path transform="translate(399,483)" d="m0 0 4 1 5 4v2h2l5 5 5 4 1 3-2 2-16-16z" fill="#3194D7"/>
<path transform="translate(397,705)" d="m0 0 2 1-4 10-3 18h-1v-18l2-7z" fill="#3AA9E5"/>
<path transform="translate(664,589)" d="m0 0 4 2 8 7 5 6-4 1-5-5v-2l-4-2-4-5z" fill="#257BCE"/>
<path transform="translate(403,697)" d="m0 0 2 1-6 7-6 5-1 6-1 17h-1v-21l3-5z" fill="#257ACE"/>
<path transform="translate(662,435)" d="m0 0 2 1-7 8-9 11h-2l-1-3 5-4 7-8z" fill="#2983D2"/>
<path transform="translate(626,735)" d="m0 0 3 1v12l-4 1-1 2 1-14z" fill="#2F88CF"/>
<path transform="translate(662,690)" d="m0 0v3l-7 10-5 6h-1l1-7z" fill="#1268A4"/>
<path transform="translate(256,260)" d="m0 0v3l-8 8-3 6-1 6h-1v-9l3-5 4-5z" fill="#FDFDFD"/>
<path transform="translate(421,506)" d="m0 0h7l-1 6-4 2-1 2-1-2 1-3-4-2 2-1 2 1z" fill="#339BDB"/>
<path transform="translate(218,767)" d="m0 0 2 4h2v3h2l3 7 2 5-5-4-4-4-2-6z" fill="#2275CB"/>
<path transform="translate(867,120)" d="m0 0 2 1-5 6-8 1 1-5z" fill="#3BC9F6"/>
<path transform="translate(872,123)" d="m0 0h1v17h-2l-1 3v-12z" fill="#2A85CE"/>
<path transform="translate(242,753)" d="m0 0 4 4 3 5-1 3-8-7 1-3z" fill="#2781D0"/>
<path transform="translate(654,694)" d="m0 0h2l-1 4-5 6h-3v-2h2l1-4z" fill="#2C83CE"/>
<path transform="translate(397,705)" d="m0 0 2 1-5 9h-2v-5z" fill="#35A0DE"/>
<path transform="translate(670,681)" d="m0 0 1 3-7 7-2-2z" fill="#166CAB"/>
<path transform="translate(704,646)" d="m0 0v3l-5 6-4 3-2-1z" fill="#1165A4"/>
<path transform="translate(720,629)" d="m0 0 1 2-4 6-4 3-2-1z" fill="#1064A1"/>
<path transform="translate(854,204)" d="m0 0h1v5l-3 6-2-2v-4h2z" fill="#1B75B3"/>
<path transform="translate(858,197)" d="m0 0 1 3-3 7-2-3 1-5z" fill="#2B88C4"/>
</svg>
