<!-- icon666.com - MILLIONS vector ICONS FREE --><svg id="Layer_1" enable-background="new 0 0 52 52" viewBox="0 0 52 52" xmlns="http://www.w3.org/2000/svg"><g id="User_Interface"><g><g><g><path d="m30.1745586 34.0538445v1.25l-8.1199951 4.7099609-4.1500244-2.4199829c-1.1300049-.6500244-2.039979-2.2199707-2.0299692-3.5100098l.0099487-3.2399902 1.0900278.6199951v.0100098l8.1099854-4.7200317-.0100098 3.2400513c0 .5999756.4200439 1.3399658.9400024 1.6399536z" fill="#111d33"></path><g><g><path d="m22.0628414 38.7672653 8.1126118-4.7145233-.0035458 1.2497826-8.1126327 4.7145195z" fill="#1d2943"></path></g></g><g><g><path d="m30.1744537 34.0555458-8.1111031 4.7117195-4.1572132-2.4236565c-.5218182-.2992859-.9438725-1.0282669-.9438725-1.6344757l.0076408-3.2383041 8.111084-4.7193604-.0076408 3.2460308c0 .598568.4220753 1.3351917.9438725 1.6344757z" fill="#4c5c75"></path></g></g><g><g><path d="m16.9697361 31.4680271-.0091686 3.2427197c-.0016994.6023903.4231777 1.3326454.9425125 1.6325226l4.1597614 2.423996-.0035667 1.2497787-4.1597614-2.423996c-1.1219788-.647728-2.0302963-2.2209892-2.0266447-3.5102501l.0092545-3.2427177z" fill="#111d33"></path></g></g><g><path d="m8.4345675 38.5738029c-.0200195-.0100098-.0400391-.0199585-.0599976-.039978-.0400391-.0200195-.0700073-.0499878-.1000366-.0900269.0499878.0500489.1000366.0900269.1600342.1300049z" fill="#b0b8cf"></path></g><g><path d="m33.164547 23.0037956c0 1.0200195-.710022 2.2600098-1.6000347 2.7700195l-21.9599619 12.710022c-.460022.2600098-.8800049.2799683-1.1699829.0899658-.0200195-.0100098-.0400391-.0199585-.0599976-.039978l-2.3100586-1.3300171c-.2799683-.1599731-.4599609-.5199585-.4599609-1.0199585l-.0400391-18.4800415c0-1.0199585.710022-2.2600098 1.5900269-2.7699585l21.9700317-12.710022c.4499512-.2600098.8499756-.2800293 1.1499634-.1199951l2.3300152 1.3699951c.0100098.0100098.0200195.0200195.0299683.0200195.3000488.1499634.4900513.5199585.4900513 1.039978z" fill="#1d2943"></path></g><g><path d="m5.5654159 17.7038136c-.0056887-1.0175667.7122555-2.2554607 1.5940628-2.7698908l21.969624-12.7123432c.4465923-.2599746.8479309-.2826438 1.1418667-.1130915l2.3911552 1.3907189c-.293869-.1695523-.6952934-.1470528-1.1418858.1074028l-21.9695386 12.7179466c-.8818073.5087433-1.5997319 1.752409-1.5941477 2.7698917l.0339613 18.4747429c.0056038.5088272.1808443.8592224.4691763 1.028862l-2.391221-1.3905487c-.2882476-.1640358-.4634881-.5201187-.4634881-1.0232582z" fill="#4c5c75"></path></g><g><path d="m31.5205803 3.6093268c.8842888-.5105247 1.6048431-.0998466 1.6077309.9203539l.0380363 18.4752522c.0028877 1.0160408-.7130203 2.2559719-1.5972042 2.7664948l-21.968605 12.7155718c-.8842697.5105247-1.604845.0998459-1.6077318-.9161949l-.0380369-18.4752522c-.0028868-1.0202007.7130189-2.2601318 1.5972896-2.7706566z" fill="#1d2943"></path></g><g fill="#b0b8cf"><path d="m33.164547 20.9638176v2.039978c0 1.0200195-.710022 2.2600098-1.6000347 2.7700195l-21.9599619 12.710022c-.460022.2600098-.8800049.2799683-1.1699829.0899658-.0599976-.039978-.1100464-.0799561-.1600342-.1300049.0300293.0400391.0599976.0700073.1000366.0900269l-2.3100586-1.3300171c-.2799683-.1599731-.4599609-.5199585-.4599609-1.0199585v-2.0400391l2.3900146 1.3900146z"></path><path d="m8.4345675 38.5738029c-.0200195-.0100098-.0400391-.0199585-.0599976-.039978-.0400391-.0200195-.0700073-.0499878-.1000366-.0900269.0499878.0500489.1000366.0900269.1600342.1300049z"></path></g><g><path d="m7.9905138 37.569191.0023775-2.0367508-2.3924103-1.3919907.0044999 2.0437965c0 .5031395.1751556.8592224.4634881 1.0232582l2.391221 1.3905487c-.2883319-.1696395-.4635724-.5200347-.4691762-1.0288619z" fill="#b0b8cf"></path></g><g><path d="m33.1663475 20.966486v2.0384464c.0028877 1.0160408-.7130203 2.2559719-1.5972042 2.7664948l-21.968605 12.7155723c-.8842697.5105247-1.604845.0998459-1.6077318-.9161949l.0000849-2.0383644z" fill="#e3e7f0"></path></g><g><path d="m21.128479 28.8952827c.453743-.2620125.8203373-.0531502.8217793.4683266.0015297.5213928-.3627071 1.1521397-.816431 1.4140682-.4537239.2620125-.8202534.0531483-.8217621-.4682426-.0014611-.5214787.3626899-1.1522255.8164138-1.4141522z" fill="#1d2943"></path></g><g><path d="m32.376236 20.5766926-23.61444 13.6666584-.0234518-15.1485634c-.0078115-.740612.5613813-1.7229462 1.2006197-2.0971165l21.9695387-12.7154841c.1793156-.1013746.2884197-.1091857.3274097-.1091857.0467606.0156221.1091652.1169968.1091652.3586321z" fill="#fff"></path></g><g><path d="m32.3502007 7.1694756-23.614441 13.6666584.0025845-1.7413464c-.0078115-.740612.5613813-1.7229462 1.2006197-2.0971165l21.9695387-12.7154841c.1793156-.1013746.2884197-.1091857.3274097-.1091857.0467606.0156221.1091652.1169968.1091652.3586321z" fill="#f45170"></path></g><path d="m46.4345665 37.6937981v1.3699951c0 .1600342-.1000366.3100586-.3099976.4300537l-17.8800029 10.329956c-.4100342.2300415-1.0800171.2399902-1.4900513 0l-7.0999756-4.1300049c-.210022-.1199951-.3099976-.2699585-.3099976-.4299927v-1.3800049c0 .0073242.0067139.0164795.0073242.0239868-.0114746-.1676025.0789795-.3334961.3026733-.4639893l17.880003-10.3199463c.4099731-.2400513 1.0800171-.2400513 1.4899902 0l7.1000366 4.1299438c.2099611.1200564.3099977.2800295.3099977.4400027z" fill="#9ea9c9"></path><g><g><path d="m46.4354897 39.065258c0 .1580734-.1001205.3109055-.3108788.4320946l-17.8790646 10.322731c-.4110298.237133-1.0802536.2424049-1.4912491 0l-7.1031723-4.1259155c-.2054806-.1159439-.3056011-.2740173-.3056011-.4320946l-.0052757-1.3824196c0 .1580772.1001205.3161507.3056355.4320946l7.103138 4.1259499c.4109974.2423706 1.0802212.2370949 1.4912491 0l17.8790683-10.3227692c.2107544-.1211853.3108749-.2740173.3108749-.4320946z" fill="#9ea9c9"></path></g><g><path d="m19.6520348 43.4455643c-.4138107.2389145-.4159966.6273994-.0048752.8663177l7.1027374 4.1276627c.4111214.2389183 1.0784645.2369766 1.4922752-.0019379l17.8780518-10.3218956c.4138107-.2389145.4159813-.6235199.0048599-.8624382l-7.1027374-4.1276588c-.4111214-.2389183-1.0784492-.24086-1.49226-.0019455z" fill="#c9cee2"></path></g><g><g><g><path d="m30.5854893 37.5362206c-.10429.0602112-.1014709.1553917-.0011959.213665l.965971.5613632c.1002693.0582695.2645798.060215.3688698 0l1.1169605-.6448746c.1009331-.0582733.1014748-.1553955.0012016-.213665l-.9659691-.5613594c-.1002769-.0582733-.2679443-.0582809-.3688774-.0000076z" fill="#e3e7f0"></path></g></g><g><g><path d="m28.1194363 38.9599991c-.1042919.0602112-.1014729.1553917-.0011978.213665l.965971.5613632c.1002712.0582695.2645798.060215.3688698 0l1.1169605-.6448784c.1042919-.0602112.1014729-.1553917.0012035-.2136612l-.965971-.5613632c-.1002769-.0582733-.2645855-.060215-.3688774-.0000038z" fill="#e3e7f0"></path></g></g><g><g><path d="m25.6533813 40.3837738c-.1042919.060215-.1014729.1553955-.0011978.2136688l.965971.5613594c.1002712.0582733.2645798.060215.3688717.0000038l1.1169605-.6448784c.1042957-.060215.1014709-.1553917.0012016-.2136612l-.965971-.5613632c-.1002769-.0582733-.2645798-.0602188-.3688755-.0000038z" fill="#e3e7f0"></path></g></g><g><g><path d="m23.1873264 41.8075523c-.1042919.060215-.1014729.1553917-.0011978.2136688l.965971.5613594c.1002712.0582695.2645798.060215.3688717.0000038l1.1169605-.6448784c.1042957-.060215.1014709-.1553917.0012016-.213665l-.965971-.5613594c-.100275-.0582733-.2645798-.0602226-.3688755-.0000076z" fill="#e3e7f0"></path></g></g><g><g><path d="m20.7212715 43.2313309c-.1009254.0582695-.1014729.1553917-.0011978.213665l.9659729.5613632c.1002693.0582695.2679443.0582695.3688698 0l1.1203251-.6468201c.1009312-.0582733.1014729-.1553917.0012035-.2136612l-.9659729-.5613632c-.100275-.0582733-.2679443-.0582771-.3688755-.0000038z" fill="#e3e7f0"></path></g></g><g><g><path d="m32.5508614 38.6783714c-.10429.0602112-.1048164.15345-.0012016.2136612l.9626274.5594177c.1002769.0582771.2645836.0602188.3688774.0000076l1.1169586-.6448784c.1009331-.0582733.1014748-.1553917.0011978-.213665l-.9626274-.5594215c-.1036148-.0602112-.2679405-.0582733-.3688698 0z" fill="#e3e7f0"></path></g></g><g><g><path d="m30.0848083 40.1021461c-.1042919.060215-.1048164.15345-.0012035.213665l.9626274.5594177c.1002769.0582733.2645855.0602188.3688774.0000038l1.1169605-.6448746c.10429-.060215.1014709-.1553955.0011978-.2136688l-.9626293-.5594177c-.1036148-.0602112-.2645798-.060215-.3688698 0z" fill="#e3e7f0"></path></g></g><g><g><path d="m27.6187534 41.5259247c-.1042919.0602112-.1048164.15345-.0012035.213665l.9626293.5594177c.100275.0582733.2645836.0602188.3688755.0000038l1.1169605-.6448784c.1042957-.060215.1014709-.1553917.0011959-.213665l-.9626274-.5594177c-.1036129-.060215-.2645741-.0602188-.3688698-.0000038z" fill="#e3e7f0"></path></g></g><g><g><path d="m25.1526985 42.9497032c-.1042919.0602112-.1048164.15345-.0012035.2136612l.9626293.5594215c.100275.0582733.2645836.060215.3688755.0000038l1.1169605-.6448784c.1042957-.060215.1014729-.1553917.0011959-.213665l-.9626274-.5594177c-.1036129-.060215-.2645741-.0602188-.3688698-.0000038z" fill="#e3e7f0"></path></g></g><g><g><path d="m22.6866436 44.3734818c-.1009254.0582695-.1048164.1534462-.0012035.2136612l.9626293.5594177c.100275.0582733.2679501.0582771.3688755.0000076l1.1203251-.6468239c.1009312-.0582695.1014729-.1553917.0011978-.213665l-.9626293-.5594177c-.1036129-.060215-.2679386-.0582733-.3688698-.0000038z" fill="#e3e7f0"></path></g></g><g><g><path d="m34.512886 39.818573c-.10429.0602112-.1048164.15345-.0011978.2136688l.9626274.5594177c.1036186.060215.2645798.060215.3688698 0l1.1169624-.6448784c.1009293-.0582695.1048203-.1534462.0012016-.2136612l-.9626274-.5594177c-.1036186-.0602188-.2679443-.0582771-.3688774-.0000076z" fill="#e3e7f0"></path></g></g><g><g><path d="m32.0468292 41.2423515c-.10429.0602112-.1048145.15345-.001194.213665l.9626274.5594177c.1036186.0602188.2645798.060215.3688698.0000038l1.1169586-.6448784c.1042938-.0602112.1048241-.1534462.0012054-.2136612l-.9626312-.5594215c-.1036186-.060215-.2645836-.060215-.3688736-.0000038z" fill="#e3e7f0"></path></g></g><g><g><path d="m29.5807762 42.6661301c-.1042919.0602112-.1048164.15345-.0011978.213665l.9626293.5594177c.1036186.0602188.2645779.060215.3688698.0000038l1.1169605-.6448784c.1042976-.060215.1048203-.1534462.0012016-.213665l-.9626274-.5594177c-.1036186-.060215-.2645798-.0602188-.3688755-.0000038z" fill="#e3e7f0"></path></g></g><g><g><path d="m27.1147213 44.0899048c-.1042919.060215-.1048164.15345-.0011978.2136688l.9626293.5594177c.1036186.060215.2645779.060215.3688698 0l1.1169605-.6448746c.1042976-.0602188.1048222-.15345.0012016-.213665l-.9626274-.5594177c-.1036186-.0602188-.2645798-.0602226-.3688755-.0000038z" fill="#e3e7f0"></path></g></g><g><g><path d="m24.6486664 45.5136833c-.1009254.0582695-.1048164.15345-.0011978.213665l.9626293.5594215c.1036186.060215.2679443.0582695.3688698 0l1.1203251-.6468201c.1009331-.0582733.1048222-.1534462.0012035-.213665l-.9626274-.5594177c-.1036205-.060215-.2679443-.0582771-.3688774-.0000038z" fill="#e3e7f0"></path></g></g><g><g><path d="m36.4749146 40.9587784c-.10429.060215-.1014748.1553955-.0012016.213665l.9659767.5613632c.1002693.0582733.2645798.060215.3688698.0000038l1.1169586-.6448784c.1009331-.0582733.1014748-.1553917.0012054-.2136612l-.9659805-.561367c-.1002693-.0582695-.2679367-.0582733-.3688698 0z" fill="#e3e7f0"></path></g></g><g><g><path d="m29.0767498 45.230114c-.1042919.0602112-.1014729.1553917-.0012016.2136612l.9659767.5613632c.1002693.0582733.2645779.060215.3688698.0000038l6.0490704-3.4924316c.10429-.060215.1014709-.1553955.0012016-.213665l-.9659767-.5613632c-.1002693-.0582695-.2645798-.060215-.3688698-.0000038z" fill="#e3e7f0"></path></g></g><g><g><path d="m26.6106949 46.6538887c-.1009254.0582695-.1014729.1553955-.0012016.213665l.9659767.5613632c.1002693.0582695.2679443.0582733.3688698.0000038l1.1203251-.6468201c.1009331-.0582733.1014729-.1553955.0012035-.213665l-.9659767-.5613632c-.1002712-.0582733-.2679386-.0582771-.3688698-.0000038z" fill="#e3e7f0"></path></g></g><g><g><path d="m36.5336266 34.1020622c-.10429.0602112-.1014709.1553917-.001194.213665l.9659691.5613632c.1002731.0582695.2645798.060215.3688698 0l1.1169624-.6448784c.10429-.0602112.1014709-.1553917.0012016-.2136612l-.9659691-.5613632c-.1002769-.0582733-.2645874-.060215-.3688774-.0000038z" fill="#e3e7f0"></path></g></g><g><g><path d="m34.0776711 35.5200081c-.1009331.0582733-.1014786.1553993-.0012054.2136726l.9659729.5613594c.1002693.0582733.2679443.0582733.3688774 0l1.1203194-.6468163c.1009254-.0582695.1014709-.1553955.0012016-.213665l-.9659729-.5613594c-.1002731-.0582771-.2679482-.0582771-.3688736-.0000076z" fill="#e3e7f0"></path></g></g><g><g><path d="m38.4990005 35.2442093c-.10429.060215-.1048164.15345-.0012016.213665l.9626274.5594177c.1002769.0582733.2645836.0602188.3688774.0000038l1.1169586-.6448746c.10429-.060215.1014709-.1553955.0011978-.2136688l-.9626274-.5594177c-.1036148-.0602112-.2645798-.060215-.3688736 0z" fill="#e3e7f0"></path></g></g><g><g><path d="m36.0430412 36.662159c-.1009293.0582733-.1048203.1534538-.0012093.2136688l.9626312.5594177c.1002731.0582733.2679482.0582733.3688812 0l1.1203194-.6468163c.1009254-.0582695.1014709-.1553917.0011978-.213665l-.9626312-.5594215c-.103611-.0602112-.2679443-.0582695-.3688698 0z" fill="#e3e7f0"></path></g></g><g><g><path d="m40.4610252 36.3844147c-.1042938.0602112-.1048164.15345-.0011978.213665l.9626274.5594177c.1036186.0602188.2645798.060215.3688698.0000038l1.1169624-.6448784c.10429-.0602112.1048203-.1534462.0012016-.2136612l-.9626274-.5594215c-.1036186-.060215-.2645874-.060215-.3688774-.0000038z" fill="#e3e7f0"></path></g></g><g><g><path d="m38.0050659 37.8023643c-.1009331.0582695-.1048241.15345-.0012054.2136688l.9626312.5594177c.1036186.060215.2679443.0582695.3688736 0l1.1203194-.6468201c.1009293-.0582695.1048241-.1534462.0012054-.2136612l-.9626274-.5594177c-.1036224-.0602188-.267952-.0582771-.3688774-.0000076z" fill="#e3e7f0"></path></g></g><g><g><path d="m42.4331474 37.5187912c-.1009369.0582771-.1014709.1553917-.0012016.213665l.9659767.5613632c.1002693.0582695.2679329.0582771.3688698.0000038l1.120327-.6468239c.1009254-.0582695.1014709-.1553917.0012016-.2136612l-.9659767-.5613632c-.1002693-.0582733-.2679443-.0582733-.3688698-.0000038z" fill="#e3e7f0"></path></g></g><g enable-background="new"><g><g><path d="m30.5857792 38.2653503.9659481.5613518c.1002808.0582771.264595.0602074.3688641 0l1.1169834-.6448784c.0507813-.0293312.0761566-.0685043.0760307-.1075783l-.0014496-.515461c.0000954.0391083-.0252457.0782509-.0760612.1075821l-1.1169491.6448784c-.1043015.0602074-.2686176.0582771-.368866 0l-.9659805-.5613518c-.0502377-.0292053-.0759983-.0676384-.076128-.1063271l.0014801.5154572c.0000973.0386582.0258903.0771218.076128.1063271z" fill="#9ea9c9"></path></g><g><path d="m28.1197033 39.6891212.9659824.5613556c.1002483.0582771.2645626.0602074.3688641 0l1.1169491-.6448784c.0520706-.0300407.077446-.0688248.0773163-.107357l-.0014477-.5154572c.0000973.0385628-.0252781.0773163-.0773163.107357l-1.1169491.6448784c-.1043015.0602036-.2686157.0582771-.3688965 0l-.96595-.5613556c-.0502357-.0292015-.0760307-.0676346-.0761261-.1063271l.0014782.5154572c.0000973.0386926.0258598.0771256.0760956.1063271z" fill="#9ea9c9"></path></g><g><path d="m25.6536617 41.112896.9659481.5613518c.1002808.0582771.264595.0602074.3688965 0l1.1169491-.6448746c.0520382-.0300407.0774136-.0687943.0773182-.107357l-.0014477-.5154266c.0000954.0385284-.02528.0772858-.0773182.1073227l-1.1169796.6448784c-.1043015.0602417-.2685852.0582771-.368866 0l-.9659805-.5613518c-.0502052-.029171-.0759983-.0676384-.0760956-.1063271l.0014477.5154572c.0001297.0386924.0258904.0771255.076128.106327z" fill="#9ea9c9"></path></g><g><path d="m23.1875858 42.5366707.9659824.5613518c.1002808.0582771.264595.0602074.3688641 0l1.1169815-.6448784c.0520382-.0300369.0774136-.0687943.0773163-.1073227l-.0014801-.5154572c.0000973.0385284-.0252457.077282-.0773163.1073532l-1.1169491.6448784c-.1043015.0602074-.2686157.0582466-.3688641 0l-.9659824-.5613861c-.0502357-.0291672-.0759983-.0676346-.0761261-.1062927l.0014801.5154266c.0000954.0386887.0258885.0771218.0760937.1063271z" fill="#9ea9c9"></path></g><g><path d="m23.252779 43.7674065-.0014801-.5154572c.0001278.0391083-.0252476.0782509-.0760632.1075821l-1.1203251.6468391c-.1009254.0582428-.2685852.0582428-.368866 0l-.9659481-.5613861c-.0498199-.0289459-.0747452-.0674744-.074873-.1060677l.0014801.5154572c.0000954.0385933.0250206.0771217.0748405.1060677l.9659805.5613556c.1002483.0582771.2679405.0582771.3688641 0l1.120327-.6468086c.0507833-.0293313.0761587-.0685044.0760633-.1075821z" fill="#9ea9c9"></path></g><g><path d="m32.4722977 38.785923.0014801.5154572c.0000954.0381126.025856.0761909.0773468.106102l.9626389.5594215c.1002808.0582771.264595.0602074.3688622 0l1.1169815-.6448746c.0507851-.029335.0761604-.0685081.0760307-.1075821l-.0014458-.5154572c.0000954.0391083-.02528.0782471-.0760651.1075783l-1.1169472.6448784c-.1043015.0602074-.2686157.0582771-.3688965 0l-.9626045-.5594215c-.0514908-.029911-.0772552-.0679932-.0773811-.106102z" fill="#9ea9c9"></path></g><g><path d="m30.085083 40.8312531.9626045.5594254c.1002808.0582771.264595.0602074.3688965 0l1.1169472-.6448785c.0520706-.0300369.0774155-.0687943.0773201-.107357l-.0014496-.5154228c.0000954.0385284-.02528.077282-.0773163.1073227l-1.1169815.6448784c-.104269.0602379-.2685833.0582771-.3688641 0l-.9626369-.5594254c-.0514584-.029911-.0772533-.0679893-.0773487-.106102l.0014477.5154572c.0001278.0381126.0258903.0761947.0773811.106102z" fill="#9ea9c9"></path></g><g><path d="m28.5801964 42.2989922-.962635-.559391c-.0514927-.0299416-.0772533-.0679893-.077383-.1061325l.0014801.5154572c.0000973.0381126.0258904.0761909.0773487.106102l.9626369.5594254c.1002808.0582771.264595.0602036.3688641 0l1.1169815-.6448784c.0520382-.0300407.0774136-.0687943.0773182-.1073265l-.0014801-.5154572c.0001278.0385323-.0252476.0772858-.0773163.107357l-1.1169491.6448784c-.1043015.0602073-.2685853.0582427-.368866-.0000344z" fill="#9ea9c9"></path></g><g><path d="m26.1141224 43.7227974-.9626045-.5594215c-.0514908-.0299416-.0772858-.0679893-.0773811-.1061363l.0014801.515461c.0000954.0381126.0258579.0761909.0773487.106102l.9626369.5594215c.1002808.0582771.2645626.0602417.3688641 0l1.1169491-.6448784c.0520687-.0300369.077446-.0687943.0773163-.1073227l-.0014477-.5154572c.0000973.0385284-.0252781.0772858-.0773163.107357l-1.1169491.6448746c-.1043015.0602074-.2686157.0582466-.3688965 0z" fill="#9ea9c9"></path></g><g><path d="m25.2147808 44.907608-.0014477-.5154572c.0000973.0391083-.0252476.0782814-.0760632.1075821l-1.1203251.6468391c-.1009254.0582771-.2685852.0582771-.368866 0l-.962635-.5594215c-.0510426-.029686-.0759983-.0678329-.0760956-.1058769l.0014477.5154572c.0000954.0380478.025053.0761909.0761261.1058769l.9626045.559391c.1002808.0582771.2679729.0582771.3688965.0000305l1.120327-.6468391c.0507832-.0293312.0761586-.06847.0760308-.1075821z" fill="#9ea9c9"></path></g><g><path d="m35.8446617 41.1071053 1.1169472-.6448746c.0512009-.0295563.077446-.0686035.0773163-.1077766l-.0014458-.5154572c.0000954.0391731-.0261154.0782166-.0773163.1077728l-1.1169815.6448784c-.1042709.0602417-.2652397.0602417-.368866 0l-.9626045-.5594215c-.0514908-.029911-.0772858-.0679893-.0773811-.106102l.0014496.5154572c.0001259.0381126.0258904.0761909.0773811.106102l.962635.5594215c.103592.0602073.2645646.0602073.368866 0z" fill="#9ea9c9"></path></g><g><path d="m33.3785858 42.53088 1.1169815-.6448784c.0524559-.0302963.0786667-.0689545.0785713-.1075478l-.0014801-.5154266c.0001297.0385933-.0260849.0772552-.0785713.1075172l-1.1169472.6448784c-.1043015.0602379-.2652397.0602379-.368866 0l-.962635-.559391c-.0514927-.0299416-.0772552-.0680237-.0773506-.1061363l.0014477.515461c.0000954.0381088.0258904.0761909.0773792.106102l.9626045.5594215c.1036263.0602073.2645951.0602073.368866 0z" fill="#9ea9c9"></path></g><g><path d="m30.9125423 43.9546547 1.1169491-.6448784c.0524902-.0302963.078701-.068924.0785713-.1075478l-.0014458-.5154266c.0000954.0385933-.0260849.0772514-.0785713.1075478l-1.116951.6448784c-.1042995.0602074-.2652702.0602074-.3688641 0l-.962635-.5594254c-.0514927-.0299416-.0772533-.0679893-.077383-.1061325l.0014801.5154572c.0000973.0381126.0258579.0761909.0773487.106102l.9626369.5594254c.1036263.0602378.2645646.0602378.3688641-.0000001z" fill="#9ea9c9"></path></g><g><path d="m27.1149998 44.8190346.9626369.559391c.1035919.0602417.2645626.0602417.3688641 0l1.1169491-.6448746c.0524883-.0302963.0786667-.068924.0785713-.1075516l-.0014477-.5154266c.0000973.0385971-.0261154.0772552-.0785713.1075516l-1.1169815.6448784c-.104269.0602036-.2652378.0602036-.3688641 0l-.9626369-.5594254c-.0514584-.029911-.0772533-.0679893-.0773487-.1061325l.0014477.5154572c.0001277.0381126.0258903.0761909.0773811.1061325z" fill="#9ea9c9"></path></g><g><path d="m27.1780682 46.0476189-.0014477-.5154572c.0000973.0391731-.0261154.0782166-.0773163.1077728l-1.1203251.6468391c-.1009254.0582771-.2652397.0602074-.368866 0l-.962635-.5594215c-.0510426-.029686-.0760002-.0678291-.076128-.1058769l.0014801.5154572c.0000954.0380478.025053.0761909.0760937.1058769l.9626369.5594215c.1036263.0602074.2679405.0582466.3688641 0l1.120327-.6468391c.0512008-.0295563.077446-.0685997.0773163-.1077728z" fill="#9ea9c9"></path></g><g><path d="m38.9255409 41.0889359-1.1169815.6448784c-.1042671.0602074-.2685852.0582771-.3688622 0l-.9659843-.5613861c-.0502052-.029171-.0759964-.0676384-.0760956-.1062965l.0014496.515461c.0001297.0386581.0258904.0771217.0761261.1062927l.96595.5613861c.1002808.0582466.264595.0602074.3688965 0l1.1169472-.6448784c.0507851-.0293312.0761604-.0685043.0760651-.1076126l-.0014801-.5154266c.0001297.0390776-.0252457.0782507-.0760308.107582z" fill="#9ea9c9"></path></g><g><path d="m36.459465 42.5127106-6.0490646 3.492424c-.1043015.0602036-.2685852.0582771-.3688641 0l-.9659824-.5613556c-.0502377-.0292015-.0759983-.0676346-.0760956-.1063271l.0014477.5154572c.0000973.0386925.0258904.0771255.0760956.1063271l.9659805.5613556c.1002808.0582771.2645969.0602074.3688965 0l6.0490665-3.492424c.0520401-.0300713.0774155-.0688286.0772858-.107357l-.0014458-.5154572c.0000954.0385284-.0252495.0773162-.0773201.107357z" fill="#9ea9c9"></path></g><g><path d="m29.0646839 46.7821007-1.120327.6468048c-.1009235.0582771-.2686157.0582771-.3688641 0l-.9659805-.5613518c-.0498199-.0289459-.0747452-.0674744-.074873-.1060715l.0014782.515461c.0000973.0385933.0250225.0771217.0748405.1060677l.9659824.5613518c.1002808.0582771.2679405.0582771.3688641 0l1.1203251-.6468048c.0507851-.0293312.0761604-.0685043.0760632-.1076126l-.0014477-.5154266c.0000973.0390738-.025278.078247-.0760612.107582z" fill="#9ea9c9"></path></g><g><path d="m36.5338898 34.8311691.9659805.5613556c.1002808.0582771.264595.0602379.368866.0000305l1.1169815-.6448784c.0520363-.0300713.0774117-.0688248.077282-.1073532l-.0014458-.515461c.0000954.0385323-.0252457.0772858-.0773163.107357l-1.116951.6448784c-.1043015.0602074-.2686157.0582771-.3688622 0l-.9659843-.5613861c-.0502357-.029171-.0759964-.0676346-.0761261-.1062927l.0014801.5154572c.0000954.0386581.0258903.0771217.0760956.1062927z" fill="#9ea9c9"></path></g><g><path d="m34.0779457 36.2491226.96595.5613518c.1002808.0582771.267971.0582771.3688965 0l1.1203232-.6468048c.0507851-.0293312.0761604-.0684738.0760307-.1075821l-.0014458-.5154572c.0000954.0391083-.02528.0782814-.0760612.1075821l-1.120327.6468391c-.1009254.0582771-.2685852.0582771-.368866 0l-.9659805-.5613861c-.0497856-.0289459-.0747452-.0674782-.0748405-.1060715l.0014801.5154572c.0000953.0385972.0250206.0771256.0748405.1060715z" fill="#9ea9c9"></path></g><g><path d="m38.4204407 35.3517761.0014763.5154572c.0000992.0381126.0258598.0761604.0773506.106102l.962635.5594215c.1002808.0582466.2645645.0602074.368866 0l1.116951-.6448746c.0520668-.0300713.0774422-.0688286.0773163-.107357l-.0014496-.5154572c.0000992.0385284-.0252762.0773163-.0773163.1073532l-1.1169472.6448784c-.1043015.0602074-.2686157.0582771-.3688965 0l-.9626045-.5594215c-.0514908-.029911-.0772858-.0679932-.0773811-.106102z" fill="#9ea9c9"></path></g><g><path d="m37.3748245 37.9507103 1.1202927-.6468391c.0508156-.0293312.0761604-.0684738.0760651-.1075821l-.0014496-.5154572c.0000992.0391083-.0252762.0782814-.0760612.1076126l-1.120327.6468086c-.1009216.0582771-.2686157.0582771-.3688622 0l-.9626389-.5594254c-.0510406-.029686-.0759964-.0678291-.0761261-.1058769l.0014801.515461c.0000954.038044.0250549.0761909.0760956.1058769l.962635.5594215c.1002808.0582467.2679406.0582467.3688965.0000001z" fill="#9ea9c9"></path></g><g><path d="m40.382473 36.4919777.0014458.5154572c.0001297.0381126.0258904.0761604.0773849.106102l.962635.5594254c.1035919.0602036.2645645.0602036.368866 0l1.1169472-.6448784c.0524864-.0302963.0786667-.0689545.0785713-.1075516l-.0014458-.5154572c.0000954.0385933-.0261154.0772552-.0785713.1075516l-1.1169815.6448746c-.1042709.0602074-.2652397.0602074-.368866 0l-.962635-.5594215c-.0514603-.0299112-.0772552-.0679895-.0773506-.1061021z" fill="#9ea9c9"></path></g><g><path d="m40.5344696 38.3362999-.0014458-.515461c.0000954.0391731-.0261154.0782204-.0773163.1078072l-1.120327.6468086c-.1009254.0582771-.2652702.0602074-.3688965 0l-.9626045-.5594254c-.051075-.0296516-.0760307-.0678291-.0761261-.1058769l.0014763.515461c.0000992.0380478.0250549.0761909.0760956.1058769l.9626389.5594215c.1036224.0602074.2679405.0582466.3688622 0l1.120327-.6468391c.0512008-.0295563.0774459-.0685997.0773162-.1077728z" fill="#9ea9c9"></path></g><g><path d="m44.963192 37.5394249c.0000954.0390778-.02528.0782509-.0760651.1075821l-1.120327.6468048c-.1009216.0582771-.2686157.0582771-.3688622 0l-.9659805-.5613518c-.0498199-.0289459-.0747452-.0674744-.0748405-.1060715l.0014458.515461c.0000954.0385933.0250549.0771217.0748405.1060677l.9659805.5613556c.1002808.0582771.2679405.0582771.368866 0l1.120327-.6468086c.0508156-.0293312.0761566-.0685043.0760612-.1076126z" fill="#9ea9c9"></path></g><g><path d="m42.421051 39.0707779-1.1202927.6468086c-.100956.0582771-.2686157.0582771-.3688965 0l-.9659805-.5613518c-.0497856-.0289459-.0747108-.0674782-.0748405-.1060715l.0014801.5154572c.0000954.0385971.0250206.0771255.0748405.1060715l.9659805.5613518c.1002464.0582771.2679405.0582771.3688622 0l1.120327-.6468048c.0507851-.029335.0761604-.0685081.0760307-.1076164l-.0014458-.5154266c.0001298.039112-.0252494.0782508-.076065.107582z" fill="#9ea9c9"></path></g></g><g><g><path d="m39.9670944 38.9425697c-.1009331.0582733-.1014786.1553955-.0012093.213665l.9659767.561367c.1002693.0582695.2679443.0582695.3688774-.0000038l1.1203194-.6468163c.1009254-.0582695.1014709-.1553917.0012016-.213665l-.9659767-.5613632c-.1002693-.0582695-.2679443-.0582695-.3688698 0z" fill="#e3e7f0"></path></g></g></g></g></g><g><g><g><path d="m30.8613186 5.5534225c.3789768-.2188025.6882915-.0425205.6895256.39294.0012455.4391651-.3060608.9714408-.6850376 1.1902428-.3821774.2206511-.6915035.0443878-.692749-.3947768-.0012341-.4354606.3060817-.9677554.688261-1.188406z" fill="#fff"></path></g></g><g><g><path d="m28.7480659 6.7735095c.3821888-.2206573.6882915-.0425205.6895256.39294.0012455.4391646-.3028488.9695854-.6850376 1.1902428-.3821774.2206507-.6882915.0425329-.689537-.3966317-.0012341-.4354606.3028698-.9659004.685049-1.1865511z" fill="#fff"></path></g></g><g><g><path d="m26.6380253 7.9917417c.3789768-.2188025.6882915-.0425205.6895275.39294.0012436.4391651-.3060627.9714403-.6850376 1.1902428-.3821907.2206573-.6915054.0443878-.6927509-.3947763-.0012341-.4354611.3060722-.9677497.688261-1.1884065z" fill="#fff"></path></g></g></g><g><g><g><path d="m17.6586704 17.3229656.0120621 4.2543621-7.3922386 4.26791-.0120611-4.2543602z" fill="#57b3fe"></path></g></g><g><g><path d="m13.9777842 25.5701599.0120611 4.2543354-3.6940241 2.1327458-.0120611-4.2543354z" fill="#78e75a"></path></g></g><g><g><path d="m19.5272007 22.3662033.0120602 4.2543354-3.6982136 2.1351662-.0120611-4.2543373z" fill="#f45170"></path></g></g><g><g><path d="m25.0724411 19.1714516.0120602 4.2543373-3.6982136 2.1351642-.0120621-4.2543373z" fill="#ffd06c"></path></g></g><g><g><path d="m30.6176815 15.9767008.0120602 4.2543363-3.6982136 2.1351662-.0120621-4.2543373z" fill="#78e75a"></path></g></g><g enable-background="new"><g><g><path d="m30.8456802 13.1271744.002388.8422136-12.1763458 7.0300169-.002388-.8422127z" fill="#e3e7f0"></path></g></g><g><g><path d="m30.8408508 11.4235077.0023747.8373995-12.1763458 7.0300169-.0023747-.8373986z" fill="#e3e7f0"></path></g></g></g><g><g><path d="m30.8360081 9.7150269.0023727.8373994-12.1763458 7.0300169-.0023747-.8373985z" fill="#e3e7f0"></path></g></g></g><path d="m41.7845421 27.4338493c-.0300293-.0900269-.0900269-.1800537-.1300049-.2600098l.0900269-.0700073.0099487-1.1500244-1.0099487-.5799561-.8400269.3899536c-.5200195-.2099609-1.0999756-.3399658-1.7000122-.3999634l-.1300049-.6300049h-1.3999634l-.1199951.6300049c-.6000366.0599976-1.1799927.1999512-1.7000122.3999634l-.8500366-.3899536-.9899902.5799561v1.1500244l.1000366.0700073c-.0400391.0899658-.0900269.1699829-.1199951.25l-1.0800152.0700073.0100098.8199463v1.1500244l1.0700054.0700073c.0299683.0900269.0899658.1699829.1300049.2600098l-.0900269.0599976v1.1499634l1 .5800171.8400269-.3900146c.5299683.210022 1.1099854.3400269 1.6999512.4100342l.1300049.6199951h1.4100342l.1099854-.6199951c.5999756-.0700073 1.1799927-.2000122 1.7000122-.4100342l.8499756.3900146.9899902-.5800171v-1.1499634l-.0999756-.0700073c.039978-.0800171.0999756-.1699829.1199951-.25l1.0800171-.0700073v-1.9699707zm-2.5599976 1.5299683c-1.0100098.5900269-2.6400146.5900269-3.6600342 0-.25-.1400146-.4299927-.3099976-.5599976-.4899902.1300049-.1699829.3099976-.3400269.5500488-.4799805 1.0099487-.5800171 2.6399536-.5800171 3.6499634 0 .2600098.1399536.4400024.3099976.5700073.4899902-.119995.1699829-.3099974.3399658-.5499877.4799805z" fill="#5094ff"></path><g><g><g enable-background="new"><g><g><path d="m41.7499466 25.9533958-.0032578 1.1490212-.6700019.4910221.0032539-1.1490192z" fill="#497bfe"></path></g></g><g><g><path d="m33.6906395 26.4431553-.0032578 1.1490192-.6732864-.4897136.0032578-1.1490212z" fill="#497bfe"></path></g></g><g><g><path d="m39.9766922 27.9123459-.0032578 1.1490231c.0010948-.386034-.2539177-.7728729-.7648087-1.0678329-1.0124474-.5845394-2.645031-.581934-3.6509018.0026131-.5022163.2918587-.7540321.6730137-.7551117 1.0543327l.0032578-1.1490154c.0010796-.3813229.2528954-.7624798.7551117-1.0543365 1.0058708-.584547 2.6384544-.5871525 3.6509018-.002615.510891.2949618.7659035.6817988.7648087 1.0678309z" fill="#5094ff"></path></g></g><g><g><path d="m42.8688278 28.3136501-.0032577 1.1490193-1.0782852.0714454.0032577-1.1490192z" fill="#497bfe"></path></g></g><g><g><path d="m32.9973946 28.3838406-.0032578 1.1490192-1.0723534-.0701427.0032578-1.1490212z" fill="#497bfe"></path></g></g><g><g><path d="m41.7905426 28.3850956-.0032616 1.1490231c-.1079178.3468266-.341507.680666-.6963806.9833355l.0032539-1.1490173c.3548775-.3026715.5884667-.6365128.6963883-.9833413z" fill="#5094ff"></path></g></g><g><g><path d="m33.7048569 29.3671684-.0032616 1.149025c-.3582649-.3026695-.5933838-.637804-.7074585-.9833336l.0032539-1.1490135c.1140786.3455238.3491974.6806564.7074662.9833221z" fill="#5094ff"></path></g></g><g><g><path d="m40.7772217 30.4336033-.0032578 1.1490192-.8476371-.3883934.0032577-1.1490192z" fill="#497bfe"></path></g></g><g><g><path d="m41.7674446 29.8581486-.0032577 1.1490192-.990223.5754547.0032578-1.1490192z" fill="#5094ff"></path></g></g><g><g><path d="m34.0360489 30.436224-.0032578 1.1490211-1.0011901-.5780372.0032577-1.1490193z" fill="#5094ff"></path></g></g><g><g><path d="m34.8815498 30.0465317-.0032577 1.1490211-.845501.3896923.0032578-1.1490211z" fill="#497bfe"></path></g></g><g><g><path d="m39.9295845 30.0452099-.0032578 1.1490231c-.5213585.2065372-1.0969315.3429337-1.6975861.4078827l.0032578-1.1490173c.6006546-.064951 1.1762276-.2013475 1.6975861-.4078885z" fill="#5094ff"></path></g></g><g><g><path d="m36.5814667 30.4531059-.0032616 1.1490231c-.5968857-.064949-1.1762238-.2000446-1.699913-.4065762l.0032539-1.1490173c.5236931.2065296 1.1030312.3416252 1.6999207.4065704z" fill="#5094ff"></path></g></g><g><g><path d="m38.2319984 30.4530964-.0032577 1.1490192-.115345.6222191.0032539-1.1490211z" fill="#497bfe"></path></g></g><g><g><path d="m38.1166496 31.0753136-.0032539 1.1490211-1.4105949-.001297.0032539-1.1490211z" fill="#5094ff"></path></g></g><g><g><path d="m41.0941582 29.368433.6732864.4897156-.9902229.5754547-.8476372-.3883934c-.5213585.2065411-1.0969315.3429375-1.6975861.4078865l-.1153488.6222172-1.4105949-.001297-.124588-.6209106c-.5968895-.0649452-1.1762276-.2000408-1.6999168-.4065742l-.8455009.3896923-1.0011902-.5780354.6699982-.4910202c-.3582687-.3026657-.5933876-.6377983-.7074623-.9833279l-1.0723534-.0701447-.006834-.8170567 1.073801-.0688553c.1124229-.3468246.3437653-.6819649.6986313-.9846287l-.6732864-.4897156.9902229-.5754547.8476372.3883934c.5213661-.2065449 1.0991898-.3416424 1.6953392-.4065933l.1198311-.6248093 1.4083519.0025845.1223602.622221c.5991249.0636463 1.1784706.1987381 1.7021561.4052753l.8455048-.3896961 1.0011902.5780354-.6700058.491024c.3582764.3026619.5933914.6377983.7052269.9846268l1.074585.0688343.0090752.8157692-1.0782852.0714455c-.1079219.3468285-.3415111.6806698-.6963847.9833374zm-5.5279885-.4052601c1.0146942.5858326 2.6517754.5858326 3.6598816-.0000134 1.0058708-.584549 1.0005264-1.5328102-.0141678-2.1186447-1.0124474-.5845375-2.645031-.5819321-3.6509018.002615-1.0081062.585846-1.0072593 1.5315037.005188 2.1160431z" fill="#57b3fe"></path></g></g><g><g><path d="m36.7060547 31.0740166-.0032539 1.1490211-.1245881-.6209106.003254-1.1490212z" fill="#497bfe"></path></g></g></g></g></g></g><path d="m15.6376925 28.6632805-.7678223-.2084351-.7344971.4240723.319519 1.5458374-3.3360596 1.9260864-.1991577-.963562-.7678223-.2084351-.737793.4259644 2.9279175 14.166626.7678833.2084351.737793-.4259644-.319458-1.5458374 3.3359995-1.9260254.1991577.963562.7678223.2084351.7344971-.4240723zm-4.2073365 5.1948242 3.3360596-1.9260864.3876953 1.8760986-3.3359985 1.9260254zm4.4230347 3.333313-3.3360596 1.9260254-.3876953-1.8760376 3.3360596-1.9260254zm-3.0244751 3.4333496 3.3360605-1.9260864.3876953 1.8760986-3.3360605 1.9260254z" fill="#aa6256"></path><g enable-background="new"><g><g><path d="m17.8311615 43.2540245-.7678299-.2084389-.3194923-1.5458336.7678299.2084427z" fill="#aa6256"></path></g></g><g><g><path d="m17.3204899 40.7831955-.7678299-.2084427-.5080872-2.4583321.7678299.2084427z" fill="#aa6256"></path></g></g><g><g><path d="m16.6212234 37.3998642-.7678298-.2084427-.5080862-2.4583168.7678308.2084389z" fill="#aa6256"></path></g></g><g><g><path d="m13.3369713 43.0830803-.7678299-.2084389 3.9835186-2.2998886.7678299.2084427z" fill="#dba660"></path></g></g><g><g><path d="m15.9219561 34.0165329-.7678299-.2084389-.5080881-2.458332.7678299.2084407z" fill="#aa6256"></path></g></g><g><g><path d="m12.6377039 39.699749-.7678299-.2084389 3.9835196-2.2998886.7678298.2084427z" fill="#dba660"></path></g></g><g><g><path d="m15.2226915 30.633215-.7678299-.2084408-.3194952-1.5458432.7678299.2084408z" fill="#aa6256"></path></g></g><g><g><path d="m14.9031963 29.0873718-.7678299-.2084408.7345028-.4240665.7678299.2084408z" fill="#dba660"></path></g></g><g><g><path d="m11.9384365 36.3164177-.7678299-.2084389 3.9835196-2.2998848.7678299.2084389z" fill="#dba660"></path></g></g><g><g><path d="m11.239172 32.9331017-.7678299-.2084427 3.9835195-2.2998848.7678299.2084408z" fill="#dba660"></path></g></g><g><g><path d="m13.1098223 45.9798927-.7678299-.2084427-2.9279661-14.1666526.7678299.2084407z" fill="#aa6256"></path></g></g><g><g><path d="m14.9031963 29.0873718.7345028-.4240665 2.9279652 14.1666546-.7345028.4240646-.3194923-1.5458298-3.9835186 2.2998848.3194923 1.5458298-.7378206.4259834-2.9279661-14.1666546.7378206-.4259815.3194952 1.545845 3.9835196-2.2998867zm1.0187598 4.9291611-.5080881-2.4583302-3.9835196 2.2998867.5080881 2.4583282zm1.3985338 6.7666626-.5080872-2.4583321-3.9835196 2.2998848.5080881 2.4583321zm-.6992665-3.3833313-.5080853-2.4583206-3.9835205 2.2998848.5080862 2.4583206z" fill="#bf7d5a"></path></g></g><g><g><path d="m10.1818562 31.8132381-.7678299-.2084407.7378206-.4259797.7678299.2084389z" fill="#dba660"></path></g></g></g></g></g></g></svg>